if (_typeface_js && _typeface_js.loadFace) _typeface_js.loadFace({"glyphs":{"S":{"x_min":-4.5625,"x_max":602,"ha":608,"o":"m 438 747 l 584 747 q 563 860 584 809 q 506 950 542 912 q 422 1008 470 987 q 317 1029 374 1029 q 172 990 237 1029 q 70 884 107 952 q 34 733 34 816 q 59 612 34 669 q 128 520 84 555 q 263 461 163 489 q 412 401 363 433 q 462 292 462 370 q 416 174 462 222 q 302 126 370 126 q 186 170 229 126 q 136 299 143 214 l -4 299 q 35 134 -4 207 q 144 21 74 62 q 301 -20 214 -20 q 452 22 382 -20 q 561 139 521 65 q 602 301 602 213 q 567 440 602 378 q 472 544 532 503 q 338 602 412 585 q 212 654 244 625 q 180 747 180 684 q 217 844 180 804 q 312 885 255 885 q 402 846 366 885 q 438 747 438 808 "},"/":{"x_min":-2.65625,"x_max":455.921875,"ha":453,"o":"m 128 0 l 227 307 l 455 1007 l 328 1007 l 227 701 l -2 0 l 128 0 "},"y":{"x_min":0,"x_max":735.046875,"ha":732,"o":"m 735 757 l 330 -250 l 185 -250 l 293 14 l 0 757 l 148 757 l 362 175 l 585 757 l 735 757 "},"Á":{"x_min":-7.96875,"x_max":862,"ha":855,"o":"m 862 0 l 751 307 l 490 1007 l 362 1007 l 250 701 l -7 0 l 140 0 l 250 299 l 601 299 l 710 0 l 862 0 m 552 437 l 302 437 l 427 816 l 552 437 m 341 1009 l 632 1171 l 572 1276 l 290 1110 l 341 1009 "},"g":{"x_min":14,"x_max":787,"ha":821,"o":"m 787 757 l 787 86 q 735 -112 787 -24 q 592 -249 684 -199 q 383 -299 500 -299 q 242 -269 310 -299 q 121 -186 175 -240 q 38 -60 69 -132 l 194 -60 q 282 -132 230 -108 q 396 -157 335 -157 q 524 -128 463 -157 q 624 -43 586 -99 q 652 13 643 -16 q 662 101 662 43 q 407 -19 553 -19 q 212 35 303 -19 q 67 179 121 87 q 14 377 14 271 q 48 533 14 460 q 140 661 82 606 q 271 745 198 715 q 419 776 344 776 q 550 749 487 776 q 662 667 612 723 l 662 757 l 787 757 m 407 641 q 277 605 336 641 q 185 508 219 569 q 152 374 152 447 q 185 245 152 304 q 277 150 219 185 q 405 115 335 115 q 534 150 475 115 q 627 248 592 186 q 662 386 662 311 q 627 514 662 455 q 535 607 593 573 q 407 641 476 641 "},"–":{"x_min":9,"x_max":749,"ha":758,"o":"m 749 371 l 749 513 l 691 513 l 9 513 l 9 371 l 68 371 l 749 371 "},"ë":{"x_min":5,"x_max":753,"ha":758,"o":"m 732 236 l 590 236 q 505 146 559 177 q 385 115 450 115 q 230 169 295 115 q 142 317 166 223 l 751 317 q 753 357 753 331 q 726 514 753 438 q 651 648 699 590 q 532 741 602 707 q 380 775 463 775 q 192 721 278 775 q 55 575 106 667 q 5 374 5 484 q 55 178 5 268 q 193 34 106 87 q 377 -20 278 -20 q 492 -2 437 -20 q 593 48 547 15 q 675 129 639 81 q 732 236 711 177 m 142 440 q 228 588 166 535 q 379 641 290 641 q 487 613 434 641 q 576 538 541 585 q 617 440 612 491 l 142 440 m 417 1012 l 417 845 l 552 845 l 552 1012 l 417 1012 m 211 1012 l 211 845 l 346 845 l 346 1012 l 211 1012 "},"Î":{"x_min":-140.453125,"x_max":358.109375,"ha":214,"o":"m 180 0 l 180 307 l 180 1007 l 35 1007 l 35 701 l 35 0 l 180 0 m 358 1063 l 174 1248 l 38 1248 l -140 1063 l 13 1063 l 108 1158 l 199 1063 l 358 1063 "},"e":{"x_min":5,"x_max":752,"ha":758,"o":"m 732 236 q 675 129 710 177 q 593 48 639 81 q 492 -1 547 16 q 377 -19 436 -19 q 192 34 278 -19 q 55 178 106 87 q 5 374 5 269 q 55 576 5 484 q 192 721 105 667 q 379 775 278 775 q 532 741 462 775 q 650 648 601 707 q 725 514 698 590 q 752 356 752 440 q 752 317 752 337 l 142 317 q 230 169 166 223 q 385 115 295 115 q 505 146 450 115 q 590 236 559 177 l 732 236 m 142 440 l 617 440 q 576 538 612 491 q 487 613 541 585 q 379 641 434 641 q 228 588 290 641 q 142 440 166 535 "},"Ã":{"x_min":-7.96875,"x_max":862,"ha":855,"o":"m 862 0 l 751 307 l 490 1007 l 362 1007 l 250 701 l -7 0 l 140 0 l 250 299 l 601 299 l 710 0 l 862 0 m 552 437 l 302 437 l 427 816 l 552 437 m 661 1130 l 598 1228 q 477 1190 530 1190 q 419 1200 445 1190 l 382 1213 q 318 1227 351 1227 q 185 1175 251 1227 l 250 1081 q 348 1113 297 1113 q 393 1107 372 1113 l 427 1095 q 519 1077 478 1077 q 661 1130 595 1077 "},"J":{"x_min":0.234375,"x_max":539,"ha":576,"o":"m 539 1007 l 539 258 q 504 115 539 179 q 407 16 469 51 q 268 -19 346 -19 q 144 9 202 -19 q 49 87 86 37 q 0 201 11 137 l 145 201 q 192 143 162 163 q 258 124 222 124 q 356 165 313 124 q 399 270 399 206 l 399 1007 l 539 1007 "},"»":{"x_min":3,"x_max":396,"ha":396,"o":"m 3 155 l 186 341 l 186 482 l 3 665 l 3 509 l 101 410 l 3 312 l 3 155 m 214 155 l 396 341 l 396 482 l 214 665 l 214 509 l 311 410 l 214 312 l 214 155 "},"ò":{"x_min":9,"x_max":782,"ha":790,"o":"m 396 775 q 202 722 291 775 q 60 578 113 669 q 9 380 9 487 q 61 179 9 271 q 202 34 113 87 q 396 -20 292 -20 q 588 34 499 -20 q 729 179 677 87 q 782 380 782 271 q 729 578 782 487 q 588 722 677 669 q 396 775 500 775 m 396 641 q 493 621 447 641 q 573 564 538 600 q 626 479 607 528 q 646 377 646 431 q 627 276 646 324 q 573 192 607 228 q 493 135 538 155 q 396 115 447 115 q 270 150 328 115 q 180 246 213 186 q 147 377 147 306 q 179 510 147 450 q 270 606 212 570 q 396 641 327 641 m 462 791 l 516 888 l 230 1058 l 175 952 l 462 791 "},"«":{"x_min":3,"x_max":394,"ha":397,"o":"m 394 665 l 212 482 l 212 339 l 394 155 l 394 309 l 296 410 l 394 509 l 394 665 m 188 665 l 3 482 l 3 339 l 188 155 l 188 309 l 88 410 l 188 509 l 188 665 "},"D":{"x_min":27,"x_max":844,"ha":855,"o":"m 27 0 l 27 1007 l 371 1007 q 563 963 475 1007 q 714 845 651 920 q 810 676 777 770 q 844 483 844 582 q 724 149 844 288 q 620 64 677 97 q 492 15 563 31 q 330 0 420 0 l 27 0 m 171 140 l 286 140 q 459 160 386 140 q 583 222 531 180 q 646 295 620 252 q 686 388 672 338 q 700 495 700 439 q 674 646 700 577 q 601 764 648 714 q 489 841 554 814 q 346 868 424 868 l 171 868 l 171 140 "},"ÿ":{"x_min":-0.390625,"x_max":735.046875,"ha":732,"o":"m 735 757 l 585 757 l 361 175 l 147 757 l 0 757 l 16 717 l 292 14 l 185 -249 l 330 -249 l 452 51 l 735 757 m 404 1013 l 404 846 l 539 846 l 539 1013 l 404 1013 m 197 1013 l 197 846 l 333 846 l 333 1013 l 197 1013 "},"í":{"x_min":-43.453125,"x_max":298.25,"ha":183,"o":"m 162 757 l 25 757 l 25 701 l 25 0 l 162 0 l 162 51 l 162 757 m 8 786 l 298 947 l 239 1053 l -43 885 l 8 786 "},"ˆ":{"x_min":-250.5625,"x_max":250.5625,"ha":214,"o":"m 250 840 l 65 1026 l -68 1026 l -250 840 l -94 840 l 2 934 l 94 840 l 250 840 "},"w":{"x_min":-5.3125,"x_max":1011.53125,"ha":1004,"o":"m 1011 757 l 740 0 l 661 0 l 505 507 l 341 0 l 265 0 l -5 757 l 140 757 l 305 262 l 458 757 l 550 757 l 701 262 l 864 757 l 1011 757 "},"$":{"x_min":-2.6875,"x_max":539,"ha":544,"o":"m 211 1122 l 211 966 q 118 911 158 949 q 55 822 77 872 q 34 717 34 771 q 101 546 34 617 q 184 495 128 516 q 295 455 240 474 q 384 405 350 436 q 418 316 418 373 q 375 204 418 250 q 271 159 333 159 q 166 201 208 159 q 117 315 124 244 l -2 315 q 53 136 -2 205 q 211 38 109 67 l 211 -110 l 336 -110 l 336 38 q 443 97 397 57 q 514 192 490 137 q 539 315 539 248 q 509 440 539 386 q 429 531 480 495 q 311 585 378 567 q 216 619 247 603 q 172 657 185 636 q 160 716 160 680 q 196 807 160 774 q 281 841 232 841 q 360 812 326 841 q 401 733 394 784 l 527 733 q 468 891 519 830 q 336 966 418 951 l 336 1122 l 211 1122 "},"Ì":{"x_min":-111.875,"x_max":227.1875,"ha":214,"o":"m 180 0 l 180 307 l 180 1007 l 35 1007 l 35 701 l 35 0 l 180 0 m 174 1015 l 227 1115 l -57 1282 l -111 1175 l 174 1015 "},"Ç":{"x_min":19,"x_max":973.234375,"ha":976,"o":"m 487 -20 q 767 46 643 -20 q 967 247 892 112 l 789 247 q 523 124 680 124 q 342 175 426 124 q 208 315 258 227 q 159 504 159 403 q 208 695 159 608 q 341 834 257 783 q 526 885 426 885 q 799 752 681 885 l 973 752 q 853 902 922 840 q 700 996 785 964 q 524 1029 617 1029 q 269 959 385 1029 q 86 768 153 889 q 19 504 19 647 q 71 271 19 380 q 216 88 123 162 q 427 -11 310 13 l 396 -112 l 437 -153 q 488 -135 459 -135 q 534 -151 515 -135 q 553 -200 553 -168 q 535 -244 553 -228 q 493 -261 517 -261 q 452 -249 471 -261 q 424 -217 433 -237 l 358 -217 q 400 -297 365 -269 q 482 -325 436 -325 q 579 -289 537 -325 q 621 -194 621 -255 q 472 -78 621 -78 l 487 -20 "},"’":{"x_min":5.5,"x_max":143,"ha":148,"o":"m 143 1007 l 5 1007 l 5 840 l 52 840 q 60 822 60 831 q 41 781 60 802 q 6 752 23 759 l 6 667 q 107 726 72 676 q 143 854 143 775 l 143 1007 "},"-":{"x_min":11,"x_max":380,"ha":396,"o":"m 380 371 l 380 513 l 11 513 l 11 371 l 380 371 "},"Q":{"x_min":14,"x_max":1041,"ha":1034,"o":"m 1041 -20 q 911 -2 965 -20 q 796 59 858 15 q 515 -20 658 -20 q 263 50 378 -20 q 81 241 148 120 q 14 504 14 361 q 80 769 14 648 q 263 959 146 889 q 518 1029 379 1029 q 713 989 621 1029 q 874 875 805 947 q 983 706 944 802 q 1022 501 1022 609 q 993 325 1022 407 q 900 149 965 242 q 962 122 939 129 q 1020 115 986 115 l 1041 115 l 1041 -20 m 669 158 q 507 258 595 215 q 339 301 420 301 q 229 270 275 301 q 311 191 264 224 q 414 139 359 157 q 523 122 469 122 q 669 158 604 122 m 783 238 q 880 498 880 356 q 831 690 880 601 q 699 832 782 780 q 521 885 616 885 q 380 853 447 885 q 262 766 314 821 q 182 640 211 711 q 154 497 154 570 q 168 396 154 451 q 337 443 245 443 q 495 413 414 443 q 648 338 576 384 q 783 238 721 293 "},"M":{"x_min":27,"x_max":1066,"ha":1095,"o":"m 1066 0 l 919 0 l 919 849 l 587 0 l 502 0 l 171 849 l 171 0 l 27 0 l 27 1007 l 247 1007 l 544 233 l 843 1007 l 1066 1007 l 1066 0 "},"C":{"x_min":19,"x_max":973.140625,"ha":976,"o":"m 967 247 l 789 247 q 523 124 680 124 q 342 175 426 124 q 208 315 258 227 q 159 504 159 403 q 208 695 159 608 q 341 834 257 783 q 526 885 426 885 q 799 752 681 885 l 973 752 q 853 902 922 840 q 700 996 785 964 q 523 1029 617 1029 q 269 959 385 1029 q 86 768 153 889 q 19 504 19 647 q 86 242 19 363 q 270 50 154 121 q 521 -20 385 -20 q 656 -1 591 -20 q 778 50 721 16 q 884 134 835 84 q 967 247 933 184 "},"œ":{"x_min":8,"x_max":1395,"ha":1405,"o":"m 1395 317 q 1395 354 1395 331 q 1395 383 1395 377 q 1343 581 1395 491 q 1204 723 1292 671 q 1013 775 1117 775 q 893 756 948 775 q 790 697 838 737 q 701 594 743 656 q 382 775 597 775 q 193 722 279 775 q 57 578 107 670 q 8 374 8 486 q 59 173 8 263 q 198 31 109 82 q 396 -20 287 -20 q 575 27 495 -20 q 701 161 655 75 q 784 62 735 103 q 891 1 834 21 q 1014 -19 949 -19 q 1164 11 1094 -19 q 1287 100 1234 42 q 1372 239 1340 158 l 1233 239 q 1144 146 1201 178 q 1023 114 1087 114 q 911 138 964 114 q 819 208 857 162 q 770 317 781 255 l 1395 317 m 383 641 q 511 606 454 641 q 602 510 568 571 q 634 374 634 448 q 601 241 634 300 q 511 148 569 182 q 383 115 454 115 q 262 148 316 115 q 177 241 208 182 q 146 374 146 301 q 177 511 146 450 q 262 607 208 572 q 383 641 315 641 m 1255 443 l 770 443 q 818 550 785 506 q 902 618 852 594 q 1014 641 952 641 q 1126 617 1076 641 q 1209 549 1176 593 q 1255 443 1242 505 "},"!":{"x_min":74,"x_max":212,"ha":241,"o":"m 212 165 l 74 165 l 74 1 l 212 1 l 212 165 m 212 1007 l 74 1007 l 74 947 l 74 248 l 212 248 l 212 307 l 212 1007 "},"ç":{"x_min":5,"x_max":742.234375,"ha":732,"o":"m 364 -20 q 597 49 497 -20 q 742 247 698 119 l 587 247 q 536 178 568 208 q 462 131 503 147 q 377 115 420 115 q 259 150 313 115 q 174 247 205 186 q 143 377 143 307 q 174 510 143 450 q 260 606 205 571 q 382 641 315 641 q 498 608 449 641 q 587 501 548 573 l 742 501 q 668 642 722 580 q 540 739 615 705 q 382 775 465 775 q 191 722 278 775 q 55 579 105 670 q 5 377 5 488 q 42 201 5 283 q 149 62 80 118 q 304 -11 217 6 l 271 -112 l 314 -153 q 361 -134 333 -134 q 407 -152 387 -134 q 427 -200 427 -170 q 408 -244 427 -228 q 365 -261 390 -261 q 302 -216 318 -261 l 234 -216 q 276 -297 241 -269 q 357 -325 312 -325 q 424 -309 393 -325 q 475 -263 456 -293 q 495 -194 495 -234 q 346 -78 495 -78 l 364 -20 "},"È":{"x_min":34,"x_max":563.484375,"ha":576,"o":"m 563 0 l 563 140 l 180 140 l 180 443 l 563 443 l 563 583 l 180 583 l 180 868 l 563 868 l 563 1007 l 34 1007 l 34 701 l 34 0 l 563 0 m 358 1015 l 412 1115 l 125 1282 l 71 1175 l 358 1015 "},"X":{"x_min":-2.65625,"x_max":823.453125,"ha":821,"o":"m 653 0 l 820 0 l 495 501 l 823 1007 l 650 1007 l 410 627 l 171 1007 l -2 1007 l 320 501 l -2 0 l 162 0 l 410 380 l 653 0 "},"ô":{"x_min":9,"x_max":782,"ha":790,"o":"m 396 775 q 202 722 291 775 q 60 578 113 669 q 9 380 9 487 q 61 179 9 271 q 202 34 113 87 q 396 -20 292 -20 q 588 34 499 -20 q 729 179 677 87 q 782 380 782 271 q 729 578 782 487 q 588 722 677 669 q 396 775 500 775 m 396 641 q 493 621 447 641 q 573 564 538 600 q 626 479 607 528 q 646 377 646 431 q 627 276 646 324 q 573 192 607 228 q 493 135 538 155 q 396 115 447 115 q 270 150 328 115 q 180 246 213 186 q 147 377 147 306 q 179 510 147 450 q 270 606 212 570 q 396 641 327 641 m 646 840 l 462 1026 l 328 1026 l 144 840 l 303 840 l 399 935 l 487 840 l 646 840 "},"Ê":{"x_min":34,"x_max":563.484375,"ha":576,"o":"m 563 0 l 563 140 l 180 140 l 180 443 l 563 443 l 563 583 l 180 583 l 180 868 l 563 868 l 563 1007 l 34 1007 l 34 701 l 34 0 l 563 0 m 541 1062 l 355 1248 l 224 1248 l 38 1062 l 197 1062 l 295 1158 l 382 1062 l 541 1062 "},")":{"x_min":-3,"x_max":356,"ha":363,"o":"m -3 915 l 16 898 q 136 780 89 842 q 205 649 182 719 q 228 495 228 579 q 206 347 228 412 q 135 219 184 281 q 3 90 85 157 l 3 -48 q 147 45 82 -12 q 258 176 212 103 q 331 330 306 248 q 356 495 356 411 q 330 667 356 583 q 257 826 305 751 q 142 960 210 901 q -3 1058 76 1020 l -3 915 "},"Å":{"x_min":-7.71875,"x_max":861.734375,"ha":854,"o":"m 861 0 l 751 307 l 490 1007 l 362 1007 l 250 701 l -7 0 l 141 0 l 250 299 l 601 299 l 710 0 l 861 0 m 552 437 l 302 437 l 427 816 l 552 437 m 427 1290 q 330 1247 364 1290 q 296 1148 296 1205 q 330 1049 296 1090 q 427 1007 364 1007 q 522 1049 488 1007 q 558 1147 558 1090 q 522 1247 558 1204 q 427 1290 488 1290 m 427 1219 q 475 1198 458 1219 q 493 1148 493 1177 q 475 1097 493 1118 q 427 1076 458 1076 q 378 1097 395 1076 q 361 1147 361 1118 q 378 1197 361 1176 q 427 1219 395 1219 "},"ø":{"x_min":9,"x_max":782,"ha":790,"o":"m 662 665 l 711 747 l 593 824 l 544 747 q 406 772 478 772 q 257 743 329 772 q 130 662 186 715 q 41 537 73 609 q 9 380 9 464 q 129 89 9 209 l 80 8 l 195 -72 l 245 8 q 382 -16 318 -16 q 531 12 459 -16 q 660 93 603 40 q 750 219 716 146 q 782 380 782 292 q 751 535 782 461 q 662 665 721 608 m 585 547 q 646 374 646 472 q 609 241 646 300 q 513 150 573 182 q 386 117 453 117 q 321 126 352 117 l 585 547 m 206 207 q 147 377 147 287 q 181 503 147 441 q 272 605 215 565 q 390 645 328 645 q 470 625 431 645 l 206 207 "},"â":{"x_min":17,"x_max":785,"ha":822,"o":"m 785 0 l 785 51 l 785 757 l 656 757 l 656 650 q 550 740 619 706 q 401 775 481 775 q 206 722 294 775 q 67 578 117 670 q 17 372 17 486 q 66 173 17 262 q 201 31 115 83 q 391 -20 287 -20 q 656 115 575 -20 l 656 0 l 785 0 m 408 641 q 532 605 475 641 q 623 508 589 570 q 657 372 657 446 q 623 243 657 302 q 532 149 589 184 q 408 115 475 115 q 281 150 339 115 q 189 244 223 185 q 155 372 155 304 q 188 508 155 446 q 279 606 222 570 q 408 641 338 641 m 662 840 l 477 1026 l 344 1026 l 160 840 l 318 840 l 415 935 l 505 840 l 662 840 "},"‰":{"x_min":9,"x_max":1488,"ha":1493,"o":"m 341 0 l 467 307 l 752 1007 l 659 1007 l 536 701 l 250 0 l 341 0 m 761 457 q 645 424 699 457 q 560 337 592 392 q 529 216 529 281 q 560 98 529 152 q 644 12 591 44 q 758 -20 697 -20 q 875 12 821 -20 q 959 99 928 44 q 990 219 990 153 q 959 338 990 284 q 877 425 929 393 q 761 457 825 457 m 761 325 q 834 293 808 325 q 860 217 860 261 q 834 141 860 173 q 761 110 808 110 q 686 142 714 110 q 659 217 659 174 q 686 292 659 260 q 761 325 714 325 m 242 1029 q 124 995 178 1029 q 39 906 70 962 q 9 785 9 850 q 39 666 9 721 q 124 579 70 611 q 240 547 177 547 q 356 580 302 547 q 441 669 409 613 q 473 789 473 725 q 441 908 473 853 q 357 996 410 964 q 242 1029 304 1029 m 239 894 q 313 862 287 894 q 339 785 339 830 q 312 711 339 743 q 239 679 286 679 q 165 711 192 679 q 139 784 139 742 q 165 861 139 829 q 239 894 192 894 m 1255 457 q 1140 424 1193 457 q 1056 337 1087 392 q 1025 217 1025 282 q 1055 98 1025 152 q 1139 12 1086 43 q 1252 -20 1191 -20 q 1370 12 1315 -20 q 1456 99 1424 44 q 1488 219 1488 155 q 1456 338 1488 283 q 1372 425 1425 393 q 1255 457 1318 457 m 1255 325 q 1329 293 1302 325 q 1356 217 1356 261 q 1329 141 1356 173 q 1255 110 1302 110 q 1181 141 1208 110 q 1154 217 1154 173 q 1181 293 1154 261 q 1255 325 1208 325 "},"Ä":{"x_min":-8.1875,"x_max":862.1875,"ha":855,"o":"m 862 0 l 751 307 l 490 1007 l 363 1007 l 251 701 l -8 0 l 140 0 l 251 299 l 601 299 l 710 0 l 862 0 m 553 437 l 303 437 l 427 816 l 553 437 m 461 1238 l 461 1068 l 599 1068 l 599 1238 l 461 1238 m 255 1238 l 255 1068 l 397 1068 l 397 1238 l 255 1238 "},"¸":{"x_min":-130.40625,"x_max":131,"ha":214,"o":"m 11 19 l -49 19 l -91 -112 l -49 -153 q -1 -135 -27 -135 q 44 -151 25 -135 q 63 -200 63 -168 q 46 -244 63 -228 q 5 -260 29 -260 q -36 -249 -16 -260 q -65 -217 -55 -237 l -130 -217 q -88 -297 -123 -269 q -5 -325 -52 -325 q 60 -310 29 -325 q 111 -264 91 -294 q 131 -194 131 -234 q -16 -78 131 -78 l 11 19 "},"a":{"x_min":17,"x_max":784,"ha":821,"o":"m 784 1 l 656 1 l 656 115 q 391 -19 575 -19 q 201 32 287 -19 q 66 173 115 84 q 17 372 17 263 q 67 578 17 486 q 205 722 117 670 q 401 775 294 775 q 550 740 481 775 q 656 650 619 706 l 656 757 l 784 757 l 784 1 m 407 641 q 279 606 338 641 q 188 508 222 570 q 155 372 155 446 q 189 244 155 304 q 281 150 223 185 q 407 115 339 115 q 532 149 475 115 q 622 243 588 184 q 656 372 656 302 q 622 508 656 446 q 532 605 589 570 q 407 641 475 641 "},"—":{"x_min":9,"x_max":749,"ha":758,"o":"m 749 371 l 749 513 l 691 513 l 9 513 l 9 371 l 68 371 l 749 371 "},"N":{"x_min":35,"x_max":815,"ha":854,"o":"m 815 0 l 671 0 l 183 777 l 183 0 l 35 0 l 35 1007 l 190 1007 l 671 239 l 671 1007 l 815 1007 l 815 0 "},"ú":{"x_min":25,"x_max":676,"ha":699,"o":"m 25 756 l 25 292 q 46 165 25 222 q 109 66 68 107 q 207 2 150 24 q 331 -20 263 -20 q 459 6 402 -20 q 551 80 517 32 l 551 -1 l 676 -1 l 676 50 l 676 756 l 537 756 l 537 344 q 514 221 537 273 q 448 142 491 169 q 347 115 405 115 q 163 344 163 115 l 163 756 l 25 756 m 263 785 l 553 946 l 496 1052 l 212 884 l 263 785 "},"2":{"x_min":-5,"x_max":616,"ha":608,"o":"m 616 0 l 1 0 l 1 129 l 385 525 q 455 613 436 575 q 474 697 474 650 q 425 831 474 776 q 306 887 377 887 q 217 859 258 887 q 154 788 177 832 q 130 699 130 742 q 133 662 130 691 l -5 662 q 30 841 -5 757 q 136 977 66 925 q 302 1029 206 1029 q 456 984 385 1029 q 568 864 526 940 q 610 700 610 788 q 597 605 610 648 q 554 519 584 563 q 474 424 525 475 l 202 140 l 616 140 l 616 0 "},"ü":{"x_min":25,"x_max":676,"ha":699,"o":"m 25 756 l 25 292 q 46 165 25 222 q 109 66 68 107 q 207 2 150 24 q 331 -20 263 -20 q 459 6 401 -20 q 551 80 517 32 l 551 -1 l 676 -1 l 676 50 l 676 756 l 537 756 l 537 344 q 514 221 537 273 q 448 142 491 169 q 347 115 405 115 q 163 344 163 115 l 163 756 l 25 756 m 385 1012 l 385 845 l 525 845 l 525 1012 l 385 1012 m 183 1012 l 183 845 l 317 845 l 317 1012 l 183 1012 "},"Z":{"x_min":5,"x_max":604,"ha":607,"o":"m 604 0 l 5 0 l 5 140 l 427 868 l 27 868 l 27 1007 l 585 1007 l 585 868 l 168 140 l 604 140 l 604 0 "},"u":{"x_min":25,"x_max":676,"ha":699,"o":"m 25 757 l 162 757 l 162 344 q 347 115 162 115 q 448 142 405 115 q 514 221 491 169 q 537 344 537 273 l 537 757 l 676 757 l 676 1 l 550 1 l 550 80 q 459 6 517 33 q 331 -19 402 -19 q 207 3 263 -19 q 109 66 150 25 q 46 165 68 107 q 25 293 25 223 l 25 757 "},"˜":{"x_min":-239.265625,"x_max":234.609375,"ha":214,"o":"m 234 907 l 174 1004 q 55 967 100 967 q -8 980 24 967 l -38 992 q -103 1003 -73 1003 q -239 950 -179 1003 l -174 862 q -81 889 -126 889 q -31 882 -58 889 l 0 873 q 93 856 53 856 q 234 907 167 856 "},"Ó":{"x_min":8,"x_max":1027,"ha":1034,"o":"m 518 1029 q 261 958 379 1029 q 76 766 144 887 q 8 501 8 644 q 47 299 8 395 q 157 133 87 204 q 321 21 228 61 q 518 -20 414 -20 q 772 50 655 -20 q 958 240 889 121 q 1027 501 1027 360 q 958 766 1027 645 q 773 958 890 887 q 518 1029 656 1029 m 519 885 q 700 833 617 885 q 833 694 784 782 q 883 501 883 605 q 835 311 883 398 q 703 174 787 224 q 519 124 619 124 q 333 174 417 124 q 199 311 248 224 q 151 501 151 398 q 199 694 151 606 q 333 833 248 782 q 519 885 417 885 m 433 1009 l 376 1109 l 664 1275 l 718 1170 l 433 1009 "},"k":{"x_min":31,"x_max":645.515625,"ha":640,"o":"m 433 757 l 604 757 l 339 397 l 645 0 l 464 0 l 169 389 l 169 0 l 31 0 l 31 1007 l 169 1007 l 169 389 l 433 757 "},"Ù":{"x_min":35,"x_max":695,"ha":733,"o":"m 695 1007 l 553 1007 l 553 328 q 503 179 553 235 q 365 124 453 124 q 231 178 279 124 q 183 328 183 234 l 183 1007 l 35 1007 l 35 309 q 78 141 35 217 q 198 23 122 66 q 362 -20 274 -20 q 531 23 455 -20 q 651 141 608 66 q 695 309 695 216 l 695 1007 m 433 1015 l 485 1115 l 200 1282 l 143 1175 l 433 1015 "},"¢":{"x_min":17,"x_max":640.59375,"ha":641,"o":"m 480 435 q 344 359 430 359 q 212 413 271 359 q 155 550 155 468 q 179 644 155 601 q 245 713 203 688 q 339 739 288 739 q 427 718 389 739 q 482 660 465 697 l 640 660 q 402 876 584 826 l 402 1007 l 274 1007 l 274 876 q 168 835 216 864 q 87 763 121 805 q 35 668 53 721 q 17 555 17 615 q 34 440 17 494 q 86 342 52 386 q 167 270 120 299 q 274 228 214 241 l 274 93 l 402 93 l 402 228 q 639 435 572 264 l 480 435 "},"ß":{"x_min":35,"x_max":746,"ha":758,"o":"m 35 0 l 165 0 l 165 166 q 278 25 212 70 q 439 -20 344 -20 q 595 21 525 -20 q 706 135 666 63 q 746 298 746 208 q 720 418 746 363 q 647 512 694 474 q 538 566 600 550 q 599 636 580 599 q 618 727 618 674 q 577 878 618 808 q 468 988 536 947 q 320 1029 399 1029 q 169 983 235 1029 q 69 863 104 938 q 35 704 35 789 l 35 700 l 35 0 m 174 262 l 174 703 q 213 839 174 792 q 325 887 252 887 q 402 866 367 887 q 456 809 436 845 q 476 729 476 773 q 431 619 476 661 q 309 578 387 578 l 309 454 l 407 454 q 512 433 468 454 q 580 374 556 412 q 604 284 604 336 q 558 164 604 213 q 444 115 513 115 q 340 155 382 115 q 287 262 297 195 l 174 262 "},"é":{"x_min":5,"x_max":753,"ha":758,"o":"m 733 236 l 591 236 q 505 146 559 177 q 385 115 451 115 q 231 169 295 115 q 142 317 166 223 l 751 317 q 753 357 753 331 q 727 514 753 438 q 651 648 699 590 q 532 741 602 707 q 380 775 463 775 q 192 721 278 775 q 55 575 106 667 q 5 374 5 484 q 55 178 5 268 q 193 34 106 87 q 377 -20 278 -20 q 492 -2 437 -20 q 593 48 547 15 q 675 129 639 82 q 733 236 711 177 m 142 440 q 228 588 166 535 q 379 641 290 641 q 488 613 434 641 q 577 538 541 585 q 618 440 613 491 l 142 440 m 295 785 l 581 947 l 526 1053 l 239 884 l 295 785 "},"s":{"x_min":1,"x_max":508,"ha":519,"o":"m 488 556 q 459 669 488 619 q 380 747 431 719 q 263 775 329 775 q 145 745 198 775 q 64 662 93 715 q 34 544 34 610 q 54 454 34 492 q 119 386 75 415 q 240 331 164 356 q 340 282 313 307 q 368 214 368 256 q 337 142 368 169 q 254 116 306 116 q 144 248 144 116 l 1 248 q 32 106 1 166 q 120 14 63 46 q 251 -19 176 -19 q 380 13 321 -19 q 474 100 439 45 q 508 220 508 155 q 287 463 508 398 q 215 488 238 476 q 183 516 192 500 q 174 559 174 532 q 196 618 174 598 q 252 639 218 639 q 317 617 287 639 q 356 556 348 595 l 488 556 "},"B":{"x_min":35,"x_max":652,"ha":667,"o":"m 35 0 l 35 1007 l 292 1007 q 442 972 372 1007 q 554 874 512 938 q 596 725 596 809 q 508 543 596 623 q 613 428 575 499 q 652 282 652 358 q 555 75 652 154 q 458 17 511 35 q 328 0 404 0 l 35 0 m 180 140 l 355 140 q 436 161 402 140 q 489 219 471 183 q 508 295 508 254 q 456 417 508 367 q 401 448 427 440 q 317 455 374 455 l 180 455 l 180 140 m 180 595 l 305 595 q 414 631 371 595 q 456 725 456 668 q 415 825 456 783 q 317 868 374 868 l 180 868 l 180 595 "},"?":{"x_min":10.0625,"x_max":596,"ha":607,"o":"m 368 164 l 230 164 l 230 0 l 368 0 l 368 164 m 365 257 q 400 383 376 335 q 479 482 424 430 l 513 509 q 596 713 596 592 q 575 829 596 772 q 515 930 554 885 q 422 1002 476 976 q 306 1029 369 1029 q 157 989 224 1029 q 50 879 90 950 q 10 719 10 808 l 148 719 q 197 843 156 799 q 305 887 238 887 q 416 837 371 887 q 462 716 462 787 q 445 649 462 678 q 380 574 428 619 q 296 477 330 528 q 247 372 263 426 q 231 257 231 318 l 365 257 "},"H":{"x_min":34,"x_max":725,"ha":759,"o":"m 725 0 l 582 0 l 582 438 l 177 438 l 177 0 l 34 0 l 34 1007 l 177 1007 l 177 578 l 582 578 l 582 1007 l 725 1007 l 725 0 "},"î":{"x_min":-156.4375,"x_max":345.109375,"ha":184,"o":"m 163 757 l 25 757 l 25 701 l 25 0 l 163 0 l 163 51 l 163 757 m 345 840 l 157 1026 l 27 1026 l -156 840 l 0 840 l 97 935 l 188 840 l 345 840 "},"c":{"x_min":5,"x_max":743.140625,"ha":733,"o":"m 743 247 l 588 247 q 537 178 569 208 q 463 131 504 147 q 377 115 421 115 q 259 150 313 115 q 174 247 205 186 q 143 377 143 307 q 174 510 143 450 q 260 606 206 571 q 382 641 315 641 q 499 608 450 641 q 588 501 549 573 l 743 501 q 669 642 723 580 q 540 739 616 705 q 382 775 465 775 q 191 722 278 775 q 55 579 105 670 q 5 377 5 488 q 54 176 5 266 q 189 32 104 85 q 380 -20 276 -20 q 535 12 463 -20 q 661 105 607 45 q 743 247 714 165 "},"¶":{"x_min":51.9375,"x_max":743,"ha":758,"o":"m 353 -304 l 383 -304 l 383 265 l 383 970 l 529 970 l 529 397 l 529 -304 l 564 -304 l 564 265 l 564 970 l 743 970 l 743 1007 l 360 1007 q 251 999 289 1007 q 176 972 212 992 q 84 885 117 941 q 51 764 51 828 q 84 646 51 702 q 174 559 116 590 q 246 533 209 540 q 353 526 283 526 l 353 397 l 353 -304 "},"(":{"x_min":5,"x_max":365,"ha":362,"o":"m 365 90 l 344 107 q 224 225 271 163 q 155 355 178 286 q 133 507 133 425 q 183 723 133 631 q 358 918 234 815 l 358 1058 q 214 961 279 1020 q 103 829 149 902 q 30 673 56 756 q 5 507 5 590 q 30 336 5 421 q 105 177 56 252 q 219 45 154 103 q 365 -48 285 -12 l 365 90 "},"U":{"x_min":35,"x_max":695,"ha":733,"o":"m 695 1007 l 553 1007 l 553 328 q 503 179 553 235 q 365 124 453 124 q 231 178 279 124 q 183 328 183 234 l 183 1007 l 35 1007 l 35 309 q 78 141 35 217 q 198 23 122 66 q 362 -20 274 -20 q 531 23 455 -20 q 651 141 608 66 q 695 309 695 216 l 695 1007 "},"Ñ":{"x_min":35,"x_max":815,"ha":854,"o":"m 815 0 l 671 0 l 183 777 l 183 0 l 35 0 l 35 1007 l 190 1007 l 671 239 l 671 1007 l 815 1007 l 815 0 m 663 1130 q 519 1077 593 1077 q 427 1095 478 1077 q 410 1102 419 1099 q 395 1108 402 1106 q 375 1111 388 1110 q 351 1113 362 1113 q 251 1081 298 1113 l 188 1175 q 320 1227 253 1227 q 368 1220 348 1227 q 419 1200 389 1213 q 477 1190 445 1190 q 598 1228 529 1190 l 663 1130 "},"F":{"x_min":27,"x_max":521.90625,"ha":519,"o":"m 169 0 l 27 0 l 27 1007 l 521 1007 l 521 868 l 169 868 l 169 575 l 521 575 l 521 435 l 169 435 l 169 0 "},":":{"x_min":44,"x_max":183,"ha":183,"o":"m 183 0 l 183 164 l 44 164 l 44 0 l 183 0 m 183 559 l 183 725 l 44 725 l 44 559 l 183 559 "},"Û":{"x_min":35,"x_max":695,"ha":733,"o":"m 695 1007 l 553 1007 l 553 328 q 503 179 553 235 q 365 124 453 124 q 231 178 279 124 q 183 328 183 234 l 183 1007 l 35 1007 l 35 309 q 78 141 35 217 q 198 23 122 66 q 362 -20 274 -20 q 531 23 455 -20 q 651 141 608 66 q 695 309 695 216 l 695 1007 m 619 1062 l 433 1248 l 301 1248 l 114 1062 l 271 1062 l 367 1158 l 458 1062 l 619 1062 "},"*":{"x_min":7,"x_max":448,"ha":453,"o":"m 154 1035 l 82 991 l 151 865 l 7 865 l 7 772 l 151 772 l 79 644 l 154 597 l 227 724 l 301 599 l 374 644 l 305 773 l 448 773 l 448 863 l 305 863 l 371 991 l 301 1035 l 227 907 l 154 1035 "},"†":{"x_min":0,"x_max":582,"ha":577,"o":"m 358 1007 l 222 1007 l 222 747 l 0 747 l 0 612 l 222 612 l 222 549 l 222 -150 l 358 -150 l 358 -87 l 358 612 l 582 612 l 582 747 l 358 747 l 358 1007 "},"V":{"x_min":-10.640625,"x_max":864.65625,"ha":855,"o":"m 469 0 l 382 0 l -10 1007 l 148 1007 l 427 258 l 702 1007 l 864 1007 l 469 0 "},"å":{"x_min":17,"x_max":785,"ha":822,"o":"m 785 0 l 785 51 l 785 757 l 656 757 l 656 650 q 550 740 619 706 q 401 775 481 775 q 206 722 294 775 q 67 578 117 670 q 17 372 17 486 q 66 173 17 262 q 201 31 115 83 q 390 -20 287 -20 q 656 115 575 -20 l 656 0 l 785 0 m 408 641 q 532 605 475 641 q 623 508 589 570 q 657 372 657 446 q 623 243 657 302 q 532 149 589 184 q 407 115 475 115 q 281 150 339 115 q 189 244 223 185 q 155 372 155 304 q 188 508 155 446 q 279 606 222 570 q 408 641 338 641 m 415 1062 q 314 1022 355 1062 q 274 923 274 982 q 315 823 274 864 q 415 783 356 783 q 510 824 475 783 q 545 921 545 865 q 510 1020 545 979 q 415 1062 475 1062 m 415 997 q 461 974 444 997 q 479 921 479 952 q 462 871 479 892 q 415 851 445 851 q 363 872 381 851 q 345 921 345 893 q 363 974 345 951 q 415 997 381 997 "}," ":{"x_min":0,"x_max":0,"ha":214},"0":{"x_min":16,"x_max":651,"ha":668,"o":"m 651 695 q 610 865 651 788 q 496 985 569 942 q 336 1029 424 1029 q 172 985 246 1029 q 57 865 99 942 q 16 695 16 789 l 16 321 q 55 150 16 229 q 166 26 95 71 q 331 -20 238 -20 q 497 26 424 -20 q 610 149 570 70 q 651 321 651 227 l 651 695 m 151 695 q 202 834 151 781 q 333 887 251 887 q 429 863 388 887 q 491 796 469 840 q 513 695 513 753 l 513 321 q 491 222 513 269 q 428 147 469 175 q 336 120 388 120 q 202 175 253 120 q 151 321 151 230 l 151 695 "},"”":{"x_min":13.828125,"x_max":347,"ha":362,"o":"m 151 1007 l 13 1007 l 13 840 l 62 840 q 67 823 67 832 q 50 781 67 802 q 14 752 33 761 l 14 667 q 114 726 78 676 q 151 854 151 775 l 151 1007 m 347 1007 l 209 1007 l 209 840 l 255 840 q 259 821 259 829 q 245 780 259 799 q 209 752 229 760 l 209 667 q 311 726 275 676 q 347 854 347 775 l 347 1007 "},"ö":{"x_min":9,"x_max":782,"ha":790,"o":"m 396 775 q 202 722 291 775 q 60 578 113 669 q 9 380 9 487 q 60 179 9 271 q 202 34 113 87 q 396 -20 292 -20 q 588 34 499 -20 q 729 179 677 87 q 782 380 782 271 q 729 578 782 487 q 588 722 677 669 q 396 775 500 775 m 396 641 q 493 621 447 641 q 573 564 538 600 q 626 479 607 528 q 646 377 646 431 q 627 276 646 324 q 573 192 608 228 q 493 135 538 155 q 396 115 447 115 q 270 150 328 115 q 179 246 213 186 q 146 377 146 306 q 179 510 146 450 q 270 606 212 570 q 396 641 327 641 m 433 1012 l 433 845 l 568 845 l 568 1012 l 433 1012 m 228 1012 l 228 845 l 363 845 l 363 1012 l 228 1012 "},"i":{"x_min":25,"x_max":162,"ha":183,"o":"m 162 757 l 162 0 l 25 0 l 25 757 l 162 757 m 162 1007 l 162 840 l 25 840 l 25 1007 l 162 1007 "},"Õ":{"x_min":8,"x_max":1027,"ha":1034,"o":"m 518 1029 q 261 958 379 1029 q 76 766 144 887 q 8 501 8 644 q 47 299 8 395 q 157 133 87 204 q 321 21 228 61 q 518 -20 414 -20 q 772 50 655 -20 q 958 240 889 121 q 1027 501 1027 360 q 958 766 1027 645 q 773 958 890 887 q 518 1029 656 1029 m 519 885 q 700 833 617 885 q 833 694 784 782 q 883 501 883 605 q 835 311 883 398 q 703 174 787 224 q 519 124 619 124 q 333 174 417 124 q 199 311 248 224 q 151 501 151 398 q 199 694 151 606 q 333 833 248 782 q 519 885 417 885 m 755 1129 l 691 1227 q 568 1190 620 1190 q 510 1200 538 1190 l 476 1213 q 411 1226 442 1226 q 275 1174 342 1226 l 344 1081 q 437 1113 386 1113 q 484 1106 457 1113 l 519 1095 q 608 1079 565 1079 q 755 1129 683 1079 "},"]":{"x_min":3,"x_max":271,"ha":305,"o":"m 3 891 q 101 789 73 847 q 131 638 131 732 l 131 357 q 101 215 131 271 q 3 112 71 160 l 3 -48 q 117 12 66 -25 q 201 100 167 50 q 253 210 235 149 q 271 341 271 271 l 271 690 q 252 804 271 748 q 197 909 233 860 q 112 996 161 958 q 3 1058 63 1034 l 3 891 "},"m":{"x_min":25,"x_max":1134,"ha":1157,"o":"m 1134 0 l 995 0 l 995 422 q 950 585 995 528 q 821 641 906 641 q 721 611 761 641 q 663 532 681 581 q 646 422 646 482 l 646 0 l 511 0 l 511 422 q 471 579 511 517 q 342 641 431 641 q 242 611 282 641 q 181 530 201 581 q 162 422 162 481 l 162 0 l 25 0 l 25 757 l 152 757 l 152 674 q 249 748 187 722 q 379 775 310 775 q 509 743 451 775 q 591 650 567 712 q 836 775 665 775 q 960 753 905 775 q 1054 692 1015 732 q 1113 593 1092 651 q 1134 459 1134 534 l 1134 0 "},"8":{"x_min":11,"x_max":632,"ha":640,"o":"m 498 554 q 583 746 583 627 q 550 882 583 817 q 457 988 517 947 q 323 1029 397 1029 q 190 991 251 1029 q 92 889 128 953 q 57 752 57 826 q 138 554 57 640 q 40 439 71 501 q 11 298 11 378 q 52 137 11 210 q 164 22 93 64 q 320 -20 235 -20 q 475 23 403 -20 q 589 140 547 66 q 632 301 632 214 q 597 444 632 380 q 498 554 563 509 m 320 889 q 411 848 378 889 q 444 753 444 808 q 411 658 444 698 q 320 619 379 619 q 229 659 262 619 q 197 755 197 700 q 229 848 197 808 q 320 889 262 889 m 320 476 q 405 451 365 476 q 469 387 445 427 q 493 301 493 346 q 469 209 493 251 q 406 144 446 168 q 320 120 366 120 q 235 143 274 120 q 171 208 195 167 q 148 294 148 248 q 171 384 148 342 q 234 450 195 425 q 320 476 274 476 "},"R":{"x_min":35,"x_max":694.65625,"ha":699,"o":"m 694 0 l 505 0 l 180 467 l 180 0 l 35 0 l 35 1007 l 339 1007 q 494 985 430 1007 q 599 918 557 964 q 667 814 643 877 q 692 682 692 751 q 660 532 692 596 q 566 428 627 468 q 419 374 505 389 l 694 0 m 180 486 l 276 486 q 478 536 409 486 q 548 682 548 586 q 533 757 548 722 q 488 816 517 791 q 419 855 460 841 q 331 868 379 868 l 180 868 l 180 486 "},"á":{"x_min":17,"x_max":785,"ha":822,"o":"m 785 0 l 785 51 l 785 757 l 656 757 l 656 650 q 550 740 619 706 q 401 775 481 775 q 206 722 294 775 q 67 578 117 670 q 17 372 17 486 q 66 173 17 262 q 201 31 115 83 q 391 -20 287 -20 q 656 115 575 -20 l 656 0 l 785 0 m 408 641 q 532 605 475 641 q 623 508 589 570 q 657 372 657 446 q 623 243 657 302 q 532 149 589 184 q 408 115 475 115 q 281 150 339 115 q 189 244 223 185 q 155 372 155 304 q 188 508 155 446 q 279 606 222 570 q 408 641 338 641 m 326 785 l 615 947 l 558 1053 l 271 884 l 326 785 "},"o":{"x_min":9,"x_max":782,"ha":790,"o":"m 396 775 q 202 722 291 775 q 60 578 113 669 q 9 380 9 487 q 61 179 9 271 q 202 34 113 87 q 396 -20 292 -20 q 588 34 499 -20 q 729 179 677 87 q 782 380 782 271 q 729 578 782 487 q 588 722 677 669 q 396 775 500 775 m 396 641 q 493 621 447 641 q 573 564 538 600 q 626 479 607 528 q 646 377 646 431 q 627 276 646 324 q 573 192 607 228 q 493 135 538 155 q 396 115 447 115 q 270 150 328 115 q 180 246 213 186 q 147 377 147 306 q 179 510 147 450 q 270 606 212 570 q 396 641 327 641 "},"5":{"x_min":-5.34375,"x_max":662,"ha":667,"o":"m 122 1007 l 38 486 l 159 460 q 324 541 221 541 q 423 516 376 541 q 498 445 469 492 q 527 336 527 399 q 499 229 527 279 q 426 150 472 180 q 328 121 380 121 q 201 171 254 121 q 133 307 148 221 l -5 307 q 29 173 2 232 q 100 70 56 113 q 202 4 144 26 q 328 -19 261 -19 q 498 28 421 -19 q 618 157 574 75 q 662 342 662 240 q 616 513 662 433 q 493 640 569 593 q 334 688 417 688 q 193 648 258 688 l 227 868 l 568 868 l 568 1007 l 122 1007 "},"õ":{"x_min":9,"x_max":782,"ha":790,"o":"m 396 775 q 202 722 291 775 q 60 578 113 669 q 9 380 9 487 q 61 179 9 271 q 202 34 113 87 q 396 -20 292 -20 q 588 34 499 -20 q 729 179 677 87 q 782 380 782 271 q 729 578 782 487 q 588 722 677 669 q 396 775 500 775 m 396 641 q 493 621 447 641 q 573 564 538 600 q 626 479 607 528 q 646 377 646 431 q 627 276 646 324 q 573 192 607 228 q 493 135 538 155 q 396 115 447 115 q 270 150 328 115 q 180 246 213 186 q 147 377 147 306 q 179 510 147 450 q 270 606 212 570 q 396 641 327 641 m 635 907 l 568 1004 q 452 965 494 965 q 386 980 419 965 l 356 991 q 289 1004 323 1004 q 154 949 216 1004 l 222 862 q 313 889 266 889 q 362 882 342 889 l 396 873 q 487 856 444 856 q 635 907 561 856 "},"7":{"x_min":5,"x_max":573,"ha":576,"o":"m 5 1007 l 573 1007 l 573 868 l 213 0 l 51 0 l 424 868 l 5 868 l 5 1007 "},"K":{"x_min":35,"x_max":740.265625,"ha":732,"o":"m 740 0 l 555 0 l 180 504 l 180 0 l 35 0 l 35 1007 l 180 1007 l 180 504 l 555 1007 l 740 1007 l 358 504 l 740 0 "},",":{"x_min":5.5,"x_max":143,"ha":148,"o":"m 143 164 l 5 164 l 5 0 l 52 0 q 60 -19 60 -8 q 40 -61 60 -39 q 6 -87 21 -83 l 6 -174 q 107 -115 72 -164 q 143 14 143 -66 l 143 164 "},"d":{"x_min":14,"x_max":784,"ha":821,"o":"m 784 1 l 656 1 l 656 106 q 538 10 600 40 q 393 -19 475 -19 q 200 32 287 -19 q 63 175 113 84 q 14 380 14 267 q 62 580 14 489 q 193 722 110 670 q 377 775 277 775 q 480 759 428 775 q 575 718 532 744 q 645 658 618 691 l 645 1007 l 784 1007 l 784 1 m 396 641 q 269 607 326 641 q 180 512 212 572 q 148 377 148 452 q 181 244 148 304 q 272 149 214 184 q 398 115 329 115 q 528 150 469 115 q 621 248 587 186 q 656 386 656 311 q 621 515 656 456 q 527 607 586 574 q 396 641 467 641 "},"¨":{"x_min":-169,"x_max":174,"ha":214,"o":"m 34 1013 l 34 846 l 174 846 l 174 1013 l 34 1013 m -169 1013 l -169 846 l -31 846 l -31 1013 l -169 1013 "},"E":{"x_min":34,"x_max":563.484375,"ha":576,"o":"m 563 0 l 34 0 l 34 1007 l 563 1007 l 563 868 l 180 868 l 180 583 l 563 583 l 563 443 l 180 443 l 180 140 l 563 140 l 563 0 "},"Y":{"x_min":-9.046875,"x_max":740.0625,"ha":732,"o":"m 437 0 l 437 362 l 740 1007 l 581 1007 l 367 535 l 151 1007 l -9 1007 l 298 362 l 298 0 l 437 0 "},"Ô":{"x_min":8,"x_max":1027,"ha":1034,"o":"m 518 1029 q 261 958 379 1029 q 76 766 144 887 q 8 501 8 644 q 47 299 8 395 q 157 133 87 204 q 321 21 228 61 q 518 -20 414 -20 q 772 50 655 -20 q 958 240 889 121 q 1027 501 1027 360 q 958 766 1027 645 q 773 958 890 887 q 518 1029 656 1029 m 519 885 q 700 833 617 885 q 833 694 784 782 q 883 501 883 605 q 835 311 883 398 q 703 174 787 224 q 519 124 619 124 q 333 174 417 124 q 199 311 248 224 q 151 501 151 398 q 199 694 151 606 q 333 833 248 782 q 519 885 417 885 m 767 1062 l 584 1248 l 450 1248 l 265 1062 l 424 1062 l 521 1157 l 610 1062 l 767 1062 "},"\"":{"x_min":13.828125,"x_max":347,"ha":362,"o":"m 151 1007 l 13 1007 l 13 840 l 62 840 q 67 823 67 832 q 50 781 67 802 q 14 752 33 761 l 14 667 q 114 726 78 676 q 151 854 151 775 l 151 1007 m 347 1007 l 209 1007 l 209 840 l 255 840 q 259 821 259 829 q 245 780 259 799 q 209 752 229 760 l 209 667 q 311 726 275 676 q 347 854 347 775 l 347 1007 "},"‹":{"x_min":16,"x_max":197,"ha":214,"o":"m 197 665 l 16 482 l 16 339 l 197 155 l 197 312 l 98 410 l 197 509 l 197 665 "},"ê":{"x_min":5,"x_max":753,"ha":758,"o":"m 733 236 l 591 236 q 505 146 559 177 q 385 115 451 115 q 231 169 295 115 q 142 317 166 223 l 751 317 q 753 357 753 331 q 727 514 753 438 q 651 648 699 590 q 532 741 602 707 q 380 775 463 775 q 192 721 278 775 q 55 575 106 667 q 5 374 5 484 q 55 178 5 268 q 193 34 106 87 q 377 -20 278 -20 q 492 -2 437 -20 q 593 48 547 15 q 675 129 639 82 q 733 236 711 177 m 142 440 q 228 588 166 535 q 379 641 290 641 q 488 613 434 641 q 577 538 541 585 q 618 440 613 491 l 142 440 m 631 840 l 445 1026 l 311 1026 l 128 840 l 286 840 l 380 935 l 472 840 l 631 840 "},"Ï":{"x_min":-62,"x_max":282,"ha":214,"o":"m 181 0 l 181 307 l 181 1007 l 36 1007 l 36 701 l 36 0 l 181 0 m 143 1238 l 143 1068 l 282 1068 l 282 1238 l 143 1238 m -62 1238 l -62 1068 l 77 1068 l 77 1238 l -62 1238 "},"„":{"x_min":13.828125,"x_max":347,"ha":362,"o":"m 151 164 l 13 164 l 13 0 l 62 0 q 67 -16 67 -8 q 49 -59 67 -38 q 14 -87 33 -80 l 14 -174 q 115 -115 79 -164 q 151 14 151 -65 l 151 164 m 347 164 l 209 164 l 209 0 l 255 0 q 259 -19 259 -8 q 244 -61 259 -41 q 209 -87 229 -80 l 209 -174 q 311 -115 276 -164 q 347 14 347 -66 l 347 164 "},"Â":{"x_min":-7.96875,"x_max":862,"ha":855,"o":"m 862 0 l 751 307 l 490 1007 l 362 1007 l 250 701 l -7 0 l 140 0 l 250 299 l 601 299 l 710 0 l 862 0 m 552 437 l 302 437 l 427 816 l 552 437 m 678 1063 l 490 1247 l 360 1247 l 177 1063 l 334 1063 l 430 1158 l 521 1063 l 678 1063 "},"´":{"x_min":-138.90625,"x_max":202.703125,"ha":214,"o":"m -85 785 l 202 947 l 145 1053 l -138 884 l -85 785 "},"Í":{"x_min":-28.796875,"x_max":308.9375,"ha":214,"o":"m 180 0 l 180 307 l 180 1007 l 35 1007 l 35 701 l 35 0 l 180 0 m 21 1009 l 308 1171 l 251 1276 l -28 1110 l 21 1009 "},"ì":{"x_min":-127.859375,"x_max":213.84375,"ha":183,"o":"m 162 757 l 25 757 l 25 701 l 25 0 l 162 0 l 162 51 l 162 757 m 159 792 l 213 889 l -74 1058 l -127 952 l 159 792 "},"Ú":{"x_min":35,"x_max":695,"ha":733,"o":"m 695 1007 l 553 1007 l 553 328 q 503 179 553 235 q 365 124 453 124 q 231 178 279 124 q 183 328 183 234 l 183 1007 l 35 1007 l 35 309 q 78 141 35 217 q 198 23 122 66 q 362 -20 274 -20 q 531 23 455 -20 q 651 141 608 66 q 695 309 695 216 l 695 1007 m 281 1009 l 568 1171 l 513 1276 l 227 1110 l 281 1009 "},"§":{"x_min":8,"x_max":656,"ha":667,"o":"m 598 771 q 557 909 591 850 q 465 998 522 968 q 333 1030 407 1030 q 205 998 263 1030 q 114 912 147 967 q 82 792 82 858 q 92 720 82 752 q 130 650 103 688 q 8 437 8 575 q 41 309 8 361 q 158 214 75 258 l 362 107 q 453 42 427 73 q 479 -31 479 12 q 440 -127 479 -91 q 333 -164 401 -164 q 186 -8 186 -164 l 40 -8 q 78 -162 40 -95 q 183 -267 117 -230 q 332 -304 248 -304 q 479 -268 414 -304 q 581 -169 544 -232 q 618 -27 618 -106 q 601 57 618 17 q 544 147 584 97 q 629 242 603 193 q 656 357 656 292 q 618 478 656 429 q 486 577 580 527 l 308 674 q 235 725 254 703 q 216 783 216 748 q 231 837 216 813 q 273 876 247 862 q 333 890 300 890 q 458 771 433 890 l 598 771 m 214 569 l 433 454 q 507 401 487 425 q 528 342 528 376 q 511 279 528 306 q 447 214 494 252 l 213 342 q 143 449 143 380 q 161 512 143 480 q 214 569 179 544 "},"Ý":{"x_min":-9.046875,"x_max":740.0625,"ha":732,"o":"m 437 0 l 437 362 l 740 1007 l 581 1007 l 367 535 l 151 1007 l -9 1007 l 298 362 l 298 0 l 437 0 m 281 1009 l 567 1171 l 512 1276 l 226 1110 l 281 1009 "},"b":{"x_min":35,"x_max":806,"ha":821,"o":"m 165 0 l 35 0 l 35 1007 l 174 1007 l 174 650 q 283 744 218 711 q 427 778 349 778 q 616 724 529 778 q 754 577 703 670 q 806 375 806 484 q 756 175 806 266 q 620 33 706 85 q 430 -19 533 -19 q 328 -6 374 -19 q 243 33 282 6 q 165 106 204 61 l 165 0 m 418 642 q 289 607 347 642 q 198 510 231 572 q 165 375 165 449 q 198 244 165 304 q 290 149 232 184 q 419 115 349 115 q 543 150 485 115 q 635 245 601 185 q 670 375 670 305 q 650 479 670 430 q 596 564 630 528 q 515 621 562 601 q 418 642 469 642 "},"q":{"x_min":17,"x_max":787,"ha":821,"o":"m 787 757 l 787 -250 l 648 -250 l 648 104 q 401 -19 551 -19 q 207 33 295 -19 q 68 176 118 85 q 17 377 17 267 q 67 579 17 488 q 206 722 118 670 q 399 775 294 775 q 547 741 473 775 q 659 655 621 708 l 659 757 l 787 757 m 407 641 q 276 607 334 641 q 184 512 217 572 q 152 377 152 452 q 185 243 152 304 q 278 149 219 184 q 410 115 338 115 q 536 149 479 115 q 626 244 593 184 q 659 374 659 304 q 626 510 659 448 q 535 606 593 572 q 407 641 478 641 "},"Ö":{"x_min":9,"x_max":1028,"ha":1035,"o":"m 519 1029 q 262 958 379 1029 q 76 766 145 887 q 9 501 9 644 q 48 299 9 395 q 158 133 88 204 q 322 21 228 61 q 519 -20 415 -20 q 773 50 655 -20 q 959 240 890 121 q 1028 501 1028 360 q 959 766 1028 645 q 774 958 891 887 q 519 1029 657 1029 m 519 885 q 701 833 618 885 q 834 694 785 782 q 884 501 884 605 q 836 311 884 398 q 704 174 788 224 q 519 124 620 124 q 333 174 417 124 q 200 311 249 224 q 152 501 152 398 q 200 694 152 606 q 333 833 249 782 q 519 885 417 885 m 555 1237 l 555 1067 l 692 1067 l 692 1237 l 555 1237 m 351 1237 l 351 1067 l 485 1067 l 485 1237 l 351 1237 "},"z":{"x_min":8,"x_max":536,"ha":544,"o":"m 41 757 l 41 628 l 361 628 l 8 107 l 8 0 l 536 0 l 536 127 l 179 127 l 511 612 l 511 757 l 41 757 "},"ã":{"x_min":17,"x_max":785,"ha":822,"o":"m 785 0 l 785 51 l 785 757 l 656 757 l 656 650 q 550 740 619 706 q 401 775 481 775 q 206 722 294 775 q 67 578 117 670 q 17 372 17 486 q 66 173 17 262 q 201 31 115 83 q 391 -20 287 -20 q 656 115 575 -20 l 656 0 l 785 0 m 408 641 q 532 605 475 641 q 623 508 589 570 q 657 372 657 446 q 623 243 657 302 q 532 149 589 184 q 408 115 475 115 q 281 150 339 115 q 189 244 223 185 q 155 372 155 304 q 188 508 155 446 q 279 606 222 570 q 408 641 338 641 m 649 907 l 584 1004 q 467 967 510 967 q 405 980 437 967 l 369 991 q 305 1004 339 1004 q 172 950 236 1004 l 238 862 q 330 889 283 889 q 378 882 359 889 l 413 873 q 501 857 459 857 q 649 907 577 857 "},"æ":{"x_min":16,"x_max":1412,"ha":1431,"o":"m 1410 317 q 1412 356 1412 331 q 1385 512 1412 436 q 1307 646 1358 587 q 1187 741 1257 707 q 1036 775 1118 775 q 790 665 891 775 l 790 757 l 665 757 l 665 665 q 404 775 563 775 q 209 722 298 775 q 68 579 120 670 q 16 377 16 488 q 68 176 16 267 q 210 32 120 84 q 410 -20 301 -20 q 545 4 489 -20 q 665 87 602 28 l 665 0 l 790 0 l 790 87 q 872 24 835 47 q 946 -9 909 1 q 1032 -20 984 -20 q 1148 -1 1092 -20 q 1251 52 1204 16 q 1335 133 1299 85 q 1391 239 1370 181 l 1248 239 q 1163 147 1218 178 q 1044 116 1108 116 q 934 140 988 116 q 844 210 881 164 q 795 317 806 257 l 1410 317 m 405 641 q 532 606 475 641 q 623 511 590 571 q 656 377 656 450 q 622 244 656 304 q 532 149 589 184 q 405 115 474 115 q 276 149 334 115 q 187 243 219 183 q 154 377 154 304 q 186 512 154 452 q 275 607 218 572 q 405 641 331 641 m 1271 440 l 797 440 q 881 588 819 535 q 1035 641 943 641 q 1143 615 1092 641 q 1228 542 1194 589 q 1271 440 1262 496 "},"É":{"x_min":34,"x_max":563.484375,"ha":576,"o":"m 563 0 l 563 140 l 180 140 l 180 443 l 563 443 l 563 583 l 180 583 l 180 868 l 563 868 l 563 1007 l 34 1007 l 34 701 l 34 0 l 563 0 m 205 1009 l 493 1171 l 437 1276 l 151 1110 l 205 1009 "},"¡":{"x_min":31,"x_max":171,"ha":239,"o":"m 171 757 l 31 757 l 31 701 l 31 0 l 171 0 l 171 51 l 171 757 m 171 1007 l 31 1007 l 31 840 l 171 840 l 171 1007 "},"[":{"x_min":31,"x_max":305,"ha":305,"o":"m 305 115 q 203 218 233 160 q 174 368 174 275 l 174 652 q 204 793 174 737 q 305 894 234 849 l 305 1058 q 189 996 240 1034 q 102 907 138 958 q 49 794 67 856 q 31 665 31 733 l 31 319 q 50 204 31 261 q 106 99 70 147 q 193 12 142 51 q 305 -48 245 -25 l 305 115 "},"L":{"x_min":31,"x_max":515.609375,"ha":519,"o":"m 515 0 l 31 0 l 31 1007 l 174 1007 l 174 140 l 515 140 l 515 0 "}," ":{"x_min":0,"x_max":0,"ha":334},"%":{"x_min":11,"x_max":992,"ha":1003,"o":"m 343 0 l 469 307 l 753 1007 l 662 1007 l 539 701 l 251 0 l 343 0 m 763 457 q 647 424 701 457 q 562 336 593 391 q 531 216 531 281 q 562 98 531 153 q 646 12 593 44 q 760 -20 699 -20 q 877 12 824 -20 q 961 99 930 44 q 992 219 992 153 q 961 338 992 284 q 879 425 931 393 q 763 457 827 457 m 763 325 q 836 293 810 325 q 862 217 862 261 q 836 141 862 173 q 763 110 810 110 q 689 142 716 110 q 662 217 662 174 q 689 292 662 260 q 763 325 716 325 m 244 1029 q 126 995 180 1029 q 41 906 72 962 q 11 785 11 850 q 41 666 11 721 q 125 579 72 611 q 242 547 178 547 q 357 580 303 547 q 441 669 410 613 q 473 789 473 725 q 441 908 473 853 q 357 996 410 964 q 244 1029 305 1029 m 241 894 q 315 862 289 894 q 341 785 341 830 q 314 711 341 743 q 241 679 288 679 q 167 711 194 679 q 141 784 141 742 q 167 861 141 829 q 241 894 194 894 "},"P":{"x_min":31,"x_max":658,"ha":667,"o":"m 177 395 l 177 0 l 31 0 l 31 1007 l 371 1007 q 489 981 435 1007 q 580 912 543 956 q 638 813 618 869 q 658 699 658 758 q 583 498 658 582 q 470 419 531 443 q 314 395 409 395 l 177 395 m 177 538 l 322 538 q 461 582 402 538 q 521 707 521 626 q 491 797 521 761 q 416 851 462 834 q 320 868 370 868 l 177 868 l 177 538 "},"À":{"x_min":-7.96875,"x_max":862,"ha":855,"o":"m 862 0 l 751 307 l 490 1007 l 362 1007 l 250 701 l -7 0 l 140 0 l 250 299 l 601 299 l 710 0 l 862 0 m 552 437 l 302 437 l 427 816 l 552 437 m 493 1015 l 547 1115 l 259 1282 l 206 1175 l 493 1015 "},"_":{"x_min":-5,"x_max":586,"ha":577,"o":"m -5 -180 l -5 -214 l 586 -214 l 586 -180 l -5 -180 "},"ñ":{"x_min":25,"x_max":676,"ha":699,"o":"m 676 0 l 537 0 l 537 410 q 356 641 537 641 q 252 613 296 641 q 185 533 208 585 q 162 410 162 480 l 162 0 l 25 0 l 25 757 l 152 757 l 152 676 q 241 749 185 723 q 368 775 298 775 q 529 736 459 775 q 637 626 599 697 q 676 462 676 554 l 676 0 m 586 906 q 443 857 519 857 q 350 874 398 857 q 277 889 291 889 q 273 889 274 889 q 270 889 272 889 q 177 863 223 889 l 109 949 q 244 1004 173 1004 q 309 991 279 1004 q 340 980 320 988 q 376 968 360 972 q 406 965 392 965 q 525 1004 448 965 l 586 906 "},"Æ":{"x_min":-2.578125,"x_max":1144,"ha":1157,"o":"m 658 1007 l 456 701 l -2 0 l 168 0 l 347 277 l 670 277 l 670 0 l 1143 0 l 1143 140 l 813 140 l 813 440 l 1143 440 l 1143 580 l 813 580 l 813 868 l 1144 868 l 1144 1007 l 658 1007 m 670 420 l 442 420 l 670 785 l 670 420 "},"Ë":{"x_min":34,"x_max":563.484375,"ha":576,"o":"m 563 0 l 563 140 l 180 140 l 180 443 l 563 443 l 563 583 l 180 583 l 180 868 l 563 868 l 563 1007 l 34 1007 l 34 701 l 34 0 l 563 0 m 325 1238 l 325 1068 l 465 1068 l 465 1238 l 325 1238 m 120 1238 l 120 1068 l 258 1068 l 258 1238 l 120 1238 "},"'":{"x_min":5.5,"x_max":143,"ha":148,"o":"m 143 1007 l 5 1007 l 5 840 l 52 840 q 60 822 60 831 q 41 781 60 802 q 6 752 23 759 l 6 667 q 107 726 72 676 q 143 854 143 775 l 143 1007 "},"Œ":{"x_min":3,"x_max":1340,"ha":1340,"o":"m 873 1007 l 873 854 q 723 983 816 937 q 516 1029 631 1029 q 258 957 377 1029 q 71 764 140 886 q 3 498 3 642 q 71 237 3 356 q 257 50 139 117 q 516 -19 375 -19 q 723 24 632 -19 q 873 149 815 67 l 873 0 l 1340 0 l 1340 140 l 1015 140 l 1015 440 l 1340 440 l 1340 583 l 1015 583 l 1015 868 l 1340 868 l 1340 1007 l 873 1007 m 510 885 q 696 834 613 885 q 826 696 779 785 q 873 498 873 608 q 846 350 873 419 q 770 231 819 282 q 654 154 720 181 q 510 127 587 127 q 323 175 407 127 q 191 309 239 223 q 143 498 143 394 q 191 694 143 605 q 324 834 239 783 q 510 885 408 885 "},"T":{"x_min":0,"x_max":519,"ha":519,"o":"m 331 0 l 188 0 l 188 868 l 0 868 l 0 1007 l 519 1007 l 519 868 l 331 868 l 331 0 "},"j":{"x_min":-68,"x_max":159,"ha":183,"o":"m 159 757 l 159 22 q 155 -99 159 -68 q 136 -161 151 -129 q 86 -232 117 -201 q 16 -280 56 -262 q -68 -298 -22 -298 l -68 -147 q -9 -132 -28 -147 q 17 -83 10 -118 q 25 21 25 -48 l 25 757 l 159 757 m 159 1007 l 159 840 l 25 840 l 25 1007 l 159 1007 "},"1":{"x_min":8.78125,"x_max":290,"ha":331,"o":"m 290 1007 l 290 0 l 151 0 l 151 868 l 8 868 l 8 1007 l 290 1007 "},"›":{"x_min":16,"x_max":197,"ha":214,"o":"m 16 155 l 197 341 l 197 482 l 16 665 l 16 509 l 114 410 l 16 312 l 16 155 "},"ä":{"x_min":17,"x_max":784,"ha":821,"o":"m 784 0 l 784 51 l 784 757 l 656 757 l 656 650 q 550 740 619 706 q 401 775 481 775 q 205 722 294 775 q 67 578 117 670 q 17 372 17 486 q 66 173 17 262 q 201 31 115 83 q 390 -20 287 -20 q 656 115 574 -20 l 656 0 l 784 0 m 407 641 q 532 605 475 641 q 622 508 589 570 q 656 372 656 446 q 622 243 656 302 q 532 149 588 184 q 407 115 475 115 q 281 150 339 115 q 189 244 223 185 q 155 372 155 304 q 188 508 155 446 q 279 606 222 570 q 407 641 338 641 m 448 1012 l 448 845 l 584 845 l 584 1012 l 448 1012 m 243 1012 l 243 845 l 378 845 l 378 1012 l 243 1012 "},"<":{"x_min":3,"x_max":394,"ha":397,"o":"m 394 665 l 212 482 l 212 339 l 394 155 l 394 309 l 296 410 l 394 509 l 394 665 m 188 665 l 3 482 l 3 339 l 188 155 l 188 309 l 88 410 l 188 509 l 188 665 "},"£":{"x_min":5,"x_max":753,"ha":758,"o":"m 596 371 q 609 301 609 335 q 565 186 609 233 q 452 140 523 140 l 393 140 q 406 247 406 195 q 358 446 406 343 l 541 446 l 541 586 l 234 586 q 193 695 193 633 q 215 786 193 742 q 279 857 238 830 q 368 885 319 885 q 541 757 482 885 l 691 757 q 630 899 675 838 q 517 995 585 961 q 368 1029 449 1029 q 208 981 283 1029 q 89 857 134 934 q 45 696 45 780 q 68 586 45 637 l 5 586 l 5 446 l 164 446 q 238 367 213 418 q 263 256 263 317 q 237 140 263 197 l 60 140 l 60 0 l 453 0 q 609 41 541 0 q 715 155 677 83 q 753 312 753 226 q 749 371 753 341 l 596 371 "},"t":{"x_min":5,"x_max":362,"ha":362,"o":"m 239 628 l 362 628 l 362 757 l 239 757 l 239 1007 l 103 1007 l 103 757 l 5 757 l 5 628 l 103 628 l 103 0 l 239 0 l 239 628 "},"ù":{"x_min":25,"x_max":676,"ha":699,"o":"m 25 756 l 25 292 q 46 165 25 222 q 109 66 68 107 q 207 2 150 24 q 331 -20 263 -20 q 459 6 402 -20 q 551 80 517 32 l 551 -1 l 676 -1 l 676 50 l 676 756 l 537 756 l 537 344 q 514 221 537 273 q 448 142 491 169 q 347 115 405 115 q 163 344 163 115 l 163 756 l 25 756 m 418 791 l 470 888 l 186 1057 l 129 951 l 418 791 "},"W":{"x_min":-13.953125,"x_max":1140.46875,"ha":1126,"o":"m 867 0 l 743 0 l 563 704 l 382 0 l 257 0 l -13 1007 l 133 1007 l 323 247 l 513 1007 l 618 1007 l 806 252 l 994 1007 l 1140 1007 l 867 0 "},"ï":{"x_min":-76,"x_max":266,"ha":183,"o":"m 163 757 l 25 757 l 25 701 l 25 0 l 163 0 l 163 51 l 163 757 m 128 1012 l 128 845 l 266 845 l 266 1012 l 128 1012 m -76 1012 l -76 845 l 63 845 l 63 1012 l -76 1012 "},">":{"x_min":3,"x_max":396,"ha":396,"o":"m 3 155 l 186 341 l 186 482 l 3 665 l 3 509 l 101 410 l 3 312 l 3 155 m 214 155 l 396 341 l 396 482 l 214 665 l 214 509 l 311 410 l 214 312 l 214 155 "},"v":{"x_min":-2.65625,"x_max":672.578125,"ha":667,"o":"m 672 757 l 382 0 l 289 0 l -2 757 l 142 757 l 336 214 l 527 757 l 672 757 "},"û":{"x_min":25,"x_max":676,"ha":699,"o":"m 25 756 l 25 292 q 46 165 25 222 q 109 66 68 107 q 207 2 150 24 q 331 -20 263 -20 q 459 6 402 -20 q 551 80 517 32 l 551 -1 l 676 -1 l 676 50 l 676 756 l 537 756 l 537 344 q 514 221 537 273 q 448 142 491 169 q 347 115 405 115 q 163 344 163 115 l 163 756 l 25 756 m 599 840 l 418 1026 l 285 1026 l 100 840 l 255 840 l 353 934 l 443 840 l 599 840 "},"Ò":{"x_min":8,"x_max":1027,"ha":1034,"o":"m 518 1029 q 261 958 379 1029 q 76 766 144 887 q 8 501 8 644 q 47 299 8 395 q 157 133 87 204 q 321 21 228 61 q 518 -20 414 -20 q 772 50 655 -20 q 958 240 889 121 q 1027 501 1027 360 q 958 766 1027 645 q 773 958 890 887 q 518 1029 656 1029 m 519 885 q 700 833 617 885 q 833 694 784 782 q 883 501 883 605 q 835 311 883 398 q 703 174 787 224 q 519 124 619 124 q 333 174 417 124 q 199 311 248 224 q 151 501 151 398 q 199 694 151 606 q 333 833 248 782 q 519 885 417 885 m 584 1014 l 297 1174 l 352 1281 l 638 1115 l 584 1014 "},"&":{"x_min":11,"x_max":861.1875,"ha":854,"o":"m 828 618 l 669 618 l 560 394 l 432 529 q 596 770 596 609 q 563 900 596 841 q 475 994 531 960 q 352 1029 419 1029 q 228 994 284 1029 q 138 900 171 960 q 106 770 106 841 q 124 670 106 710 q 200 569 143 630 q 62 456 114 535 q 11 279 11 377 q 50 127 11 196 q 158 20 89 58 q 311 -20 226 -20 q 467 22 398 -20 q 592 155 535 64 l 765 -20 l 861 77 l 663 284 l 828 618 m 333 627 l 301 662 q 258 716 268 695 q 248 767 248 737 q 280 849 248 820 q 356 879 312 879 q 426 851 397 879 q 456 774 456 824 q 446 721 456 742 q 410 679 436 700 q 333 627 386 659 m 295 467 l 497 258 q 311 124 432 124 q 197 168 244 124 q 151 279 151 214 q 185 382 151 338 q 295 467 219 427 "},"I":{"x_min":35,"x_max":180,"ha":214,"o":"m 180 0 l 35 0 l 35 1007 l 180 1007 l 180 0 "},"G":{"x_min":17,"x_max":1021,"ha":1035,"o":"m 1021 503 l 405 503 l 405 365 l 860 365 q 780 236 830 291 q 664 153 730 181 q 524 124 599 124 q 341 176 426 124 q 206 314 256 227 q 157 501 157 402 q 206 693 157 604 q 339 833 255 781 q 524 885 424 885 q 659 854 599 885 q 789 756 719 824 l 957 756 q 842 901 911 839 q 690 995 773 963 q 515 1029 606 1029 q 264 958 379 1029 q 83 766 149 887 q 17 501 17 645 q 83 238 17 358 q 265 49 149 119 q 519 -20 381 -20 q 716 21 624 -20 q 876 134 807 61 q 983 302 945 207 q 1021 503 1021 398 "},"`":{"x_min":-221.984375,"x_max":119.625,"ha":214,"o":"m 68 791 l 119 888 l -164 1058 l -221 952 l 68 791 "},"·":{"x_min":34,"x_max":240,"ha":271,"o":"m 240 397 l 240 650 l 34 650 l 34 397 l 240 397 "},"r":{"x_min":25,"x_max":339.453125,"ha":332,"o":"m 162 0 l 25 0 l 25 757 l 152 757 l 152 687 q 231 753 187 733 q 339 774 275 774 l 339 624 q 204 571 247 624 q 162 413 162 517 l 162 0 "},"¿":{"x_min":7,"x_max":596.609375,"ha":608,"o":"m 240 840 l 378 840 l 378 1007 l 240 1007 l 240 840 m 240 749 q 207 622 230 670 q 128 523 183 573 l 97 492 q 7 294 7 415 q 45 143 7 217 q 152 25 84 70 q 303 -20 220 -20 q 451 18 385 -20 q 557 126 518 56 q 596 285 596 196 l 459 285 q 410 162 449 205 q 305 120 371 120 q 225 143 262 120 q 167 204 188 166 q 146 289 146 243 q 162 357 146 327 q 227 431 179 387 q 311 529 277 479 q 360 633 344 580 q 377 749 377 686 l 240 749 "},"ý":{"x_min":0,"x_max":735.046875,"ha":732,"o":"m 735 757 l 585 757 l 362 175 l 148 757 l 0 757 l 16 716 l 293 14 l 185 -250 l 330 -250 l 453 51 l 735 757 m 281 786 l 567 947 l 513 1053 l 227 885 l 281 786 "},"x":{"x_min":-2.65625,"x_max":669.921875,"ha":667,"o":"m 484 757 l 330 518 l 174 757 l 2 757 l 247 386 l -2 0 l 162 0 l 330 258 l 502 0 l 669 0 l 420 386 l 656 757 l 484 757 "},"è":{"x_min":5,"x_max":753,"ha":758,"o":"m 733 236 l 591 236 q 505 146 559 177 q 385 115 451 115 q 231 169 295 115 q 142 317 166 223 l 751 317 q 753 357 753 331 q 727 514 753 438 q 651 648 699 590 q 532 741 602 707 q 380 775 463 775 q 192 721 278 775 q 55 575 106 667 q 5 374 5 484 q 55 178 5 268 q 193 34 106 87 q 377 -20 278 -20 q 492 -2 437 -20 q 593 48 547 15 q 675 129 639 82 q 733 236 711 177 m 142 440 q 228 588 166 535 q 379 641 290 641 q 488 613 434 641 q 577 538 541 585 q 618 440 613 491 l 142 440 m 445 791 l 498 888 l 213 1058 l 156 952 l 445 791 "},"Ø":{"x_min":8,"x_max":1028,"ha":1035,"o":"m 761 960 q 515 1029 658 1029 q 261 958 377 1029 q 76 766 144 887 q 8 501 8 644 q 49 295 8 394 q 161 129 91 197 l 75 8 l 188 -78 l 274 40 q 502 -20 380 -20 q 696 18 601 -20 q 866 127 791 57 q 984 291 941 196 q 1028 495 1028 386 q 875 876 1028 712 l 965 999 l 847 1084 l 761 960 m 675 844 l 242 250 q 151 501 151 372 q 181 647 151 577 q 266 772 212 718 q 386 856 319 826 q 523 887 452 887 q 675 844 605 887 m 360 158 l 787 754 q 881 498 881 637 q 850 349 881 419 q 767 229 820 279 q 648 150 715 178 q 510 122 582 122 q 360 158 432 122 "},"h":{"x_min":27,"x_max":675,"ha":698,"o":"m 675 0 l 536 0 l 536 427 q 357 641 536 641 q 253 615 297 641 q 185 541 208 589 q 161 427 161 492 l 161 0 l 27 0 l 27 1007 l 161 1007 l 161 679 q 248 753 199 731 q 371 775 296 775 q 496 753 439 775 q 592 692 552 732 q 653 597 632 652 q 675 473 675 542 l 675 0 "},".":{"x_min":5,"x_max":143,"ha":148,"o":"m 143 0 l 143 164 l 5 164 l 5 0 l 143 0 "},"f":{"x_min":-3,"x_max":331,"ha":331,"o":"m 202 0 l 65 0 l 65 628 l -3 628 l -3 757 l 65 757 l 65 786 q 98 908 65 858 q 189 982 132 958 q 331 1007 246 1007 l 331 885 q 202 786 202 885 l 202 757 l 331 757 l 331 628 l 202 628 l 202 0 "},";":{"x_min":43,"x_max":182,"ha":182,"o":"m 182 164 l 43 164 l 43 0 l 94 0 q 43 -87 94 -71 l 43 -174 q 146 -115 110 -164 q 182 14 182 -66 l 182 164 m 182 559 l 182 725 l 43 725 l 43 559 l 182 559 "},"“":{"x_min":14,"x_max":347.171875,"ha":362,"o":"m 14 668 l 151 668 l 151 832 l 103 832 q 100 854 100 842 q 115 895 100 876 q 152 923 130 914 l 152 1006 q 51 949 88 1000 q 14 819 14 899 l 14 668 m 209 668 l 347 668 l 347 832 l 301 832 q 296 855 296 842 q 311 895 296 876 q 347 923 326 914 l 347 1006 q 244 950 281 1000 q 209 819 209 900 l 209 668 "},"6":{"x_min":11,"x_max":689,"ha":698,"o":"m 360 1007 l 86 564 q 26 447 42 494 q 11 339 11 401 q 55 158 11 240 q 179 28 100 76 q 352 -19 257 -19 q 522 28 445 -19 q 644 159 599 76 q 689 342 689 242 q 646 509 689 430 q 530 634 603 587 q 371 682 457 682 q 314 676 342 682 l 524 1007 l 360 1007 m 352 552 q 452 522 406 552 q 525 442 498 493 q 553 333 553 392 q 493 182 553 244 q 350 121 433 121 q 247 150 294 121 q 172 228 199 179 q 146 336 146 277 q 173 446 146 396 q 248 523 200 495 q 352 552 295 552 "},"A":{"x_min":-7.96875,"x_max":862,"ha":855,"o":"m 862 0 l 711 0 l 601 299 l 250 299 l 140 0 l -7 0 l 362 1007 l 490 1007 l 862 0 m 552 437 l 427 816 l 302 437 l 552 437 "},"‘":{"x_min":5,"x_max":143,"ha":148,"o":"m 5 668 l 142 668 l 142 835 l 96 835 q 93 854 93 845 q 107 896 93 877 q 143 923 122 916 l 143 1009 q 42 951 79 1001 q 5 819 5 901 l 5 668 "},"O":{"x_min":8,"x_max":1027,"ha":1034,"o":"m 518 1029 q 261 958 379 1029 q 76 766 144 887 q 8 501 8 644 q 47 299 8 395 q 157 133 87 204 q 321 21 228 61 q 518 -20 414 -20 q 772 50 655 -20 q 958 240 889 121 q 1027 501 1027 360 q 958 766 1027 645 q 773 958 890 887 q 518 1029 656 1029 m 519 885 q 700 833 617 885 q 833 694 784 782 q 883 501 883 605 q 835 311 883 398 q 703 174 787 224 q 519 124 619 124 q 333 174 417 124 q 199 311 248 224 q 151 501 151 398 q 199 694 151 606 q 333 833 248 782 q 519 885 417 885 "},"n":{"x_min":25,"x_max":676,"ha":699,"o":"m 676 0 l 537 0 l 537 410 q 356 641 537 641 q 252 613 296 641 q 185 533 208 585 q 162 410 162 480 l 162 0 l 25 0 l 25 757 l 152 757 l 152 676 q 241 749 185 723 q 368 775 298 775 q 529 736 459 775 q 637 626 599 697 q 676 462 676 554 l 676 0 "},"3":{"x_min":0,"x_max":635,"ha":640,"o":"m 0 299 q 41 138 0 211 q 155 22 83 65 q 311 -20 227 -20 q 472 22 397 -20 q 591 139 547 65 q 635 301 635 213 q 600 442 635 379 q 502 549 566 505 q 570 639 552 600 q 588 741 588 679 q 553 887 588 821 q 459 991 519 953 q 325 1029 399 1029 q 188 993 251 1029 q 89 894 126 957 q 53 757 53 831 l 192 757 q 228 851 192 813 q 319 889 265 889 q 387 870 357 889 q 436 822 418 852 q 454 755 454 791 q 436 680 454 712 q 386 631 418 648 q 309 615 353 615 l 260 615 l 260 476 l 311 476 q 405 453 363 476 q 472 391 448 431 q 496 303 496 352 q 472 211 496 253 q 408 144 448 169 q 319 120 367 120 q 188 169 239 120 q 138 299 138 218 l 0 299 "},"9":{"x_min":11,"x_max":689,"ha":698,"o":"m 339 0 l 615 444 q 673 561 658 515 q 689 668 689 607 q 663 809 689 743 q 590 925 637 875 q 480 1002 543 974 q 346 1030 418 1030 q 215 1002 276 1030 q 108 924 153 974 q 36 808 61 875 q 11 665 11 740 q 53 496 11 575 q 167 371 95 417 q 324 325 239 325 q 382 331 355 325 l 177 0 l 339 0 m 350 888 q 493 824 433 888 q 553 671 553 760 q 493 516 553 579 q 346 455 433 455 q 246 484 292 455 q 172 564 199 513 q 146 674 146 614 q 173 781 146 732 q 247 858 200 830 q 350 888 294 888 "},"l":{"x_min":35,"x_max":177,"ha":214,"o":"m 177 1007 l 177 0 l 35 0 l 35 1007 l 177 1007 "},"4":{"x_min":9,"x_max":695,"ha":699,"o":"m 591 1007 l 591 302 l 695 302 l 695 156 l 591 156 l 591 0 l 453 0 l 453 156 l 9 156 l 9 310 l 453 1007 l 591 1007 m 453 302 l 453 775 l 164 302 l 453 302 "},"p":{"x_min":35,"x_max":806,"ha":821,"o":"m 35 -250 l 35 757 l 162 757 l 162 641 q 180 667 165 646 q 225 713 195 688 q 307 756 256 737 q 424 775 358 775 q 617 721 530 775 q 755 574 705 668 q 806 368 806 482 q 756 170 806 259 q 621 31 707 82 q 434 -19 536 -19 q 280 14 350 -19 q 173 106 209 49 l 173 -250 l 35 -250 m 415 641 q 285 606 343 641 q 194 511 227 571 q 162 377 162 450 q 196 247 162 308 q 289 150 230 186 q 417 115 348 115 q 542 149 485 115 q 633 244 599 184 q 667 374 667 304 q 647 478 667 429 q 593 564 627 528 q 512 621 559 600 q 415 641 466 641 "},"Ü":{"x_min":35,"x_max":695,"ha":733,"o":"m 695 1007 l 553 1007 l 553 328 q 503 179 553 235 q 365 124 453 124 q 231 178 279 124 q 183 328 183 234 l 183 1007 l 35 1007 l 35 309 q 78 141 35 217 q 198 23 122 66 q 362 -20 274 -20 q 531 23 455 -20 q 651 141 608 66 q 695 309 695 216 l 695 1007 m 404 1238 l 404 1068 l 539 1068 l 539 1238 l 404 1238 m 197 1238 l 197 1068 l 333 1068 l 333 1238 l 197 1238 "},"à":{"x_min":17,"x_max":785,"ha":822,"o":"m 785 0 l 785 51 l 785 757 l 656 757 l 656 650 q 550 740 619 706 q 401 775 481 775 q 206 722 294 775 q 67 578 117 670 q 17 372 17 486 q 66 173 17 262 q 201 31 115 83 q 391 -20 287 -20 q 656 115 575 -20 l 656 0 l 785 0 m 408 641 q 532 605 475 641 q 623 508 589 570 q 657 372 657 446 q 623 243 657 302 q 532 149 589 184 q 408 115 475 115 q 281 150 339 115 q 189 244 223 185 q 155 372 155 304 q 188 508 155 446 q 279 606 222 570 q 408 641 338 641 m 477 791 l 531 888 l 245 1058 l 191 952 l 477 791 "},"ó":{"x_min":9,"x_max":782,"ha":790,"o":"m 396 775 q 202 722 291 775 q 60 578 113 669 q 9 380 9 487 q 61 179 9 271 q 202 34 113 87 q 396 -20 292 -20 q 588 34 499 -20 q 729 179 677 87 q 782 380 782 271 q 729 578 782 487 q 588 722 677 669 q 396 775 500 775 m 396 641 q 493 621 447 641 q 573 564 538 600 q 626 479 607 528 q 646 377 646 431 q 627 276 646 324 q 573 192 607 228 q 493 135 538 155 q 396 115 447 115 q 270 150 328 115 q 180 246 213 186 q 147 377 147 306 q 179 510 147 450 q 270 606 212 570 q 396 641 327 641 m 309 785 l 597 947 l 542 1053 l 255 884 l 309 785 "}}}
